<?xml version="1.0" encoding="UTF-8" standalone="no"?>
<!-- Created with Inkscape (http://www.inkscape.org/) -->
<svg xmlns:rdf="http://www.w3.org/1999/02/22-rdf-syntax-ns#" xmlns="http://www.w3.org/2000/svg" height="80" width="80" version="1.1" xmlns:cc="http://creativecommons.org/ns#" xmlns:dc="http://purl.org/dc/elements/1.1/" viewBox="0 0 21.166666 21.166667">
 <defs>
  <linearGradient id="linearGradient3856-64-5-8" x1="404" gradientUnits="userSpaceOnUse" x2="398.38" gradientTransform="matrix(.635 0 0 .635 -248.73 -30.112)" y1="514.24" y2="503.7">
   <stop stop-color="#1754da" offset="0"/>
   <stop stop-color="#144cc6" offset="1"/>
  </linearGradient>
  <linearGradient id="linearGradient3853-04-0-4" x1="402.25" gradientUnits="userSpaceOnUse" x2="396.62" gradientTransform="matrix(.65942 0 0 .65942 -258.5 -42.491)" y1="507.86" y2="502.85">
   <stop stop-color="#1859e7" offset="0"/>
   <stop stop-color="#154ecb" offset="1"/>
  </linearGradient>
 </defs>
 <metadata>
  <rdf:RDF>
   <cc:Work rdf:about="">
    <dc:format>image/svg+xml</dc:format>
    <dc:type rdf:resource="http://purl.org/dc/dcmitype/StillImage"/>
    <dc:title/>
   </cc:Work>
  </rdf:RDF>
 </metadata>
 <g transform="translate(0 -275.83)">
  <g transform="matrix(2 0 0 2 .046273 -297.07)">
   <rect rx="1.9447" ry="1.9447" height="9.525" width="9.525" y="286.98" x=".50603" fill="url(#linearGradient3856-64-5-8)"/>
   <rect rx="1.7502" ry="1.7502" height="8.5725" width="8.5725" y="287.46" x=".98228" fill="url(#linearGradient3853-04-0-4)"/>
   <path opacity=".2" d="m7.4084 289.57c-0.15912 0.0298-0.31759 0.13308-0.41672 0.27781l-2.5599 3.74-0.9723-0.97c-0.24809-0.24809-0.64488-0.24809-0.89297 0s-0.24809 0.64488 0 0.89297l1.4089 1.4089 0.099218 0.0992c0.026734 0.0264 0.047181 0.0573 0.079376 0.0794 0.024828 0.017 0.053212 0.0267 0.079375 0.0397 0.032448 0.016 0.065062 0.0296 0.099219 0.0397 0.019304 0.006 0.040005 0.0159 0.059499 0.0198 0.012508 0.003 0.027051-0.002 0.039688 0 0.053594 0.007 0.10514 0.007 0.15875 0 0.053594-0.007 0.10794-0.019 0.15875-0.0397 0.079751-0.0316 0.15553-0.0754 0.21828-0.13891 0.026415-0.0267 0.057341-0.0472 0.079375-0.0794l2.9964-4.3855c0.19826-0.28946 0.13071-0.6947-0.15875-0.89297-0.14473-0.0991-0.31713-0.12897-0.47625-0.0992z"/>
   <path fill="#1a1a1a" d="m7.4084 288.93c-0.15912 0.0298-0.31759 0.13309-0.41672 0.27782l-2.5599 3.75-0.9723-0.97c-0.24809-0.24809-0.64488-0.24809-0.89297 0s-0.24809 0.64488 0 0.89297l1.4089 1.4089 0.099218 0.0992c0.026734 0.0264 0.047181 0.0573 0.079376 0.0794 0.024828 0.017 0.053212 0.0267 0.079375 0.0397 0.032448 0.016 0.065062 0.0296 0.099219 0.0397 0.019304 0.006 0.040005 0.0159 0.059499 0.0198 0.012508 0.003 0.027051-0.002 0.039688 0 0.053594 0.007 0.10514 0.007 0.15875 0 0.053594-0.007 0.10794-0.019 0.15875-0.0397 0.079751-0.0316 0.15553-0.0754 0.21828-0.13891 0.026415-0.0267 0.057341-0.0472 0.079375-0.0794l2.9964-4.3855c0.19826-0.28946 0.13071-0.6947-0.15875-0.89297-0.14473-0.0991-0.31713-0.12898-0.47625-0.0992z"/>
  </g>
 </g>
</svg>
