<?xml version="1.0" encoding="UTF-8" standalone="no"?>
<!-- Created with Inkscape (http://www.inkscape.org/) -->
<svg xmlns:rdf="http://www.w3.org/1999/02/22-rdf-syntax-ns#" xmlns="http://www.w3.org/2000/svg" height="40" width="40" version="1.1" xmlns:cc="http://creativecommons.org/ns#" xmlns:dc="http://purl.org/dc/elements/1.1/" viewBox="0 0 10.583333 10.583334">
 <metadata>
  <rdf:RDF>
   <cc:Work rdf:about="">
    <dc:format>image/svg+xml</dc:format>
    <dc:type rdf:resource="http://purl.org/dc/dcmitype/StillImage"/>
    <dc:title/>
   </cc:Work>
  </rdf:RDF>
 </metadata>
 <rect rx="0" ry="0" height="10.584" width="10.584" y="-.0049167" x="-.00050317" stroke-width=".24805" fill="none"/>
 <g stroke-width=".11162">
  <rect rx="1.9447" ry="1.9447" height="9.5251" width="9.5251" y=".55146" x=".50179" fill="#b3b3b3"/>
  <rect rx="1.7502" ry="1.7502" height="8.5726" width="8.5726" y="1.027" x=".97731" fill="none"/>
  <path opacity=".2" d="m7.4034 3.1333c-0.1591 0.0298-0.3176 0.1331-0.4167 0.2778l-2.5598 3.7505-0.9724-0.9723c-0.24809-0.24809-0.64489-0.24809-0.89298 0s-0.24809 0.64489 0 0.89298l1.4089 1.4089 0.099219 0.09922c0.026735 0.026415 0.047182 0.057342 0.079377 0.079376 0.024828 0.017019 0.053213 0.02667 0.079376 0.039688 0.032449 0.016002 0.065062 0.029591 0.09922 0.039687 0.019305 0.00572 0.040006 0.015876 0.059499 0.019813 0.01251 0.00253 0.027052-0.00191 0.03969 0 0.053594 0.00685 0.10514 0.00685 0.15875 0 0.053593-0.00692 0.10794-0.018986 0.15875-0.039689 0.079752-0.03156 0.15553-0.07537 0.21829-0.1389 0.026415-0.026734 0.05734-0.047245 0.079375-0.079377l2.9965-4.3856c0.1982-0.2894 0.1307-0.6947-0.1588-0.893-0.1447-0.0991-0.3171-0.1289-0.4763-0.0992z"/>
  <path d="m7.4034 2.4993c-0.1591 0.0298-0.3176 0.1331-0.4167 0.2778l-2.5598 3.7505-0.9724-0.9723c-0.24809-0.24809-0.64489-0.24809-0.89298 0s-0.24809 0.64489 0 0.89298l1.4089 1.4089 0.099219 0.09922c0.026735 0.026417 0.047182 0.057342 0.079377 0.079376 0.024828 0.017019 0.053213 0.026671 0.079376 0.039688 0.032449 0.016002 0.065062 0.02959 0.09922 0.039687 0.019305 0.00572 0.040006 0.015876 0.059499 0.019812 0.01251 0.00253 0.027052-0.00191 0.03969 0 0.053594 0.00692 0.10514 0.00692 0.15875 0 0.053593-0.00692 0.10794-0.018986 0.15875-0.039687 0.079752-0.03156 0.15553-0.075376 0.21829-0.1389 0.026415-0.026734 0.05734-0.047181 0.079375-0.079375l2.9965-4.3856c0.1982-0.2894 0.1307-0.6947-0.1588-0.893-0.1447-0.0991-0.3171-0.1289-0.4763-0.0992z" fill="#1a1a1a"/>
 </g>
</svg>
