<?xml version="1.0" encoding="UTF-8" standalone="no"?>
<!-- Created with Inkscape (http://www.inkscape.org/) -->
<svg xmlns:rdf="http://www.w3.org/1999/02/22-rdf-syntax-ns#" xmlns="http://www.w3.org/2000/svg" height="32" width="32" version="1.1" xmlns:cc="http://creativecommons.org/ns#" xmlns:dc="http://purl.org/dc/elements/1.1/" viewBox="0 0 8.466667 8.4666669">
 <defs>
  <linearGradient id="linearGradient3856-3-8" x1="404" gradientUnits="userSpaceOnUse" x2="398.38" gradientTransform="matrix(1.1378,0,0,1.1378,-597.61,-1039.5)" y1="514.24" y2="503.7">
   <stop stop-color="#87b7ff" offset="0"/>
   <stop stop-color="#98c1ff" offset="1"/>
  </linearGradient>
  <linearGradient id="linearGradient3853-3-9" x1="402.25" gradientUnits="userSpaceOnUse" x2="396.62" gradientTransform="matrix(1.1378,0,0,1.1378,-597.61,-1039.5)" y1="507.86" y2="502.85">
   <stop stop-color="#75afff" offset="0"/>
   <stop stop-color="#8cbaff" offset="1"/>
  </linearGradient>
 </defs>
 <metadata>
  <rdf:RDF>
   <cc:Work rdf:about="">
    <dc:format>image/svg+xml</dc:format>
    <dc:type rdf:resource="http://purl.org/dc/dcmitype/StillImage"/>
    <dc:title/>
   </cc:Work>
  </rdf:RDF>
 </metadata>
 <g transform="translate(0 -288.53)">
  <g transform="matrix(2 0 0 2 -.00094906 -297.01)">
   <g id="checkbox-checked-insensitive" transform="matrix(.21704 0 0 .21704 4.1848 347.34)">
    <g transform="translate(132.97,221.16)">
     <rect rx="3.4844" ry="3.4844" height="17.067" width="17.067" y="-471.37" x="-151.03" fill="url(#linearGradient3856-3-8)"/>
     <rect rx="3.0199" ry="3.0199" height="14.791" width="14.791" y="-470.23" x="-149.9" fill="url(#linearGradient3853-3-9)"/>
     <path opacity=".2" d="m-138.67-466.74c-0.28512 0.0533-0.56906 0.23845-0.74667 0.49777l-4.5867 6.72-1.7422-1.7422c-0.44451-0.44451-1.1555-0.44451-1.6 0-0.44451 0.44452-0.44451 1.1555 0 1.6l2.5244 2.5244 0.17778 0.17777c0.0479 0.0474 0.0846 0.10272 0.14222 0.14223 0.0445 0.0305 0.0954 0.0478 0.14222 0.0711 0.0581 0.0287 0.11658 0.053 0.17778 0.0712 0.0346 0.0107 0.0717 0.0285 0.10667 0.0355 0.0224 0.004 0.0484-0.003 0.0711 0 0.096 0.0123 0.18838 0.0123 0.28444 0 0.096-0.0124 0.19341-0.034 0.28444-0.0711 0.1429-0.0565 0.27868-0.13505 0.39112-0.24889 0.0474-0.0479 0.10272-0.0847 0.14221-0.14222l5.3689-7.8578c0.35523-0.51865 0.2342-1.2448-0.28445-1.6-0.25932-0.17762-0.56821-0.23109-0.85333-0.17778z"/>
     <path fill="#e9f1fc" d="m-138.67-467.88c-0.28512 0.0533-0.56906 0.23845-0.74667 0.49778l-4.5867 6.72-1.7422-1.7422c-0.44451-0.44452-1.1555-0.44452-1.6 0-0.44451 0.44451-0.44451 1.1555 0 1.6l2.5244 2.5244 0.17778 0.17778c0.0479 0.0474 0.0846 0.10272 0.14222 0.14222 0.0445 0.0305 0.0954 0.0478 0.14222 0.0711 0.0581 0.0287 0.11658 0.053 0.17778 0.0711 0.0346 0.0107 0.0717 0.0285 0.10667 0.0355 0.0224 0.004 0.0484-0.003 0.0711 0 0.096 0.0124 0.18838 0.0124 0.28444 0 0.096-0.0124 0.19341-0.034 0.28444-0.0711 0.1429-0.0565 0.27868-0.13506 0.39112-0.24889 0.0474-0.0479 0.10272-0.0846 0.14221-0.14222l5.3689-7.8578c0.35523-0.51865 0.2342-1.2448-0.28445-1.6-0.25932-0.17762-0.56821-0.2311-0.85333-0.17778z"/>
    </g>
   </g>
  </g>
 </g>
</svg>
