<?xml version="1.0" encoding="UTF-8" standalone="no"?>
<!-- Created with Inkscape (http://www.inkscape.org/) -->
<svg xmlns:rdf="http://www.w3.org/1999/02/22-rdf-syntax-ns#" xmlns="http://www.w3.org/2000/svg" height="32" width="32" version="1.1" xmlns:cc="http://creativecommons.org/ns#" xmlns:xlink="http://www.w3.org/1999/xlink" viewBox="0 0 8.466667 8.4666669" xmlns:dc="http://purl.org/dc/elements/1.1/">
 <defs>
  <linearGradient id="linearGradient5276" x1="404" xlink:href="#linearGradient6651" gradientUnits="userSpaceOnUse" y1="514.24" gradientTransform="matrix(.24694 0 0 .24694 -96.661 169.72)" x2="398.38" y2="503.7"/>
  <linearGradient id="linearGradient6651">
   <stop stop-color="#fff" offset="0"/>
  </linearGradient>
  <linearGradient id="linearGradient5278" x1="402.25" xlink:href="#linearGradient6651" gradientUnits="userSpaceOnUse" y1="507.86" gradientTransform="matrix(.24694 0 0 .24694 -96.661 169.72)" x2="396.62" y2="502.85"/>
 </defs>
 <metadata>
  <rdf:RDF>
   <cc:Work rdf:about="">
    <dc:format>image/svg+xml</dc:format>
    <dc:type rdf:resource="http://purl.org/dc/dcmitype/StillImage"/>
    <dc:title/>
   </cc:Work>
  </rdf:RDF>
 </metadata>
 <g transform="translate(0 -288.53)">
  <g transform="matrix(2 0 0 2 .0000066439 -297)">
   <rect opacity=".85" rx=".75627" ry=".75627" height="3.7042" width="3.7042" y="293.03" x=".26458" fill="url(#linearGradient5276)"/>
   <rect opacity=".85" rx=".65543" ry=".65543" height="3.2103" width="3.2103" y="293.28" x=".51152" fill="url(#linearGradient5278)"/>
   <path opacity=".5" d="m2.9488 294.04c-0.061883 0.0115-0.12351 0.0518-0.16206 0.10804l-0.9955 1.4585-0.37813-0.37813c-0.096479-0.0965-0.25079-0.0965-0.34727 0-0.096479 0.0965-0.096479 0.25079 0 0.34727l0.54791 0.5479 0.038585 0.0386c0.010396 0.0103 0.01834 0.0223 0.030868 0.0309 0.00966 0.007 0.020706 0.0104 0.03087 0.0154 0.01261 0.006 0.025303 0.0115 0.038583 0.0155 0.00751 0.002 0.015562 0.006 0.023128 0.008 0.00486 0.001 0.010505-0.00069 0.015453 0 0.020836 0.003 0.040884 0.003 0.061733 0 0.020836-0.003 0.04198-0.007 0.061737-0.0154 0.031013-0.0123 0.060485-0.0293 0.084889-0.054 0.010288-0.0104 0.022295-0.0184 0.030868-0.0309l1.1653-1.7055c0.077102-0.11257 0.050833-0.27016-0.061735-0.34727-0.056285-0.0385-0.12333-0.0501-0.18521-0.0386z" fill="#d1d1f1"/>
   <path opacity=".5" d="m2.9488 293.79c-0.061883 0.0116-0.12351 0.0517-0.16206 0.10803l-0.9955 1.4585-0.37813-0.37813c-0.096479-0.0965-0.25079-0.0965-0.34727 0-0.096479 0.0965-0.096479 0.25078 0 0.34726l0.54791 0.54791 0.038585 0.0386c0.010396 0.0103 0.01834 0.0223 0.030868 0.0309 0.00966 0.007 0.020706 0.0104 0.03087 0.0154 0.01261 0.006 0.025303 0.0115 0.038583 0.0154 0.00751 0.002 0.015562 0.006 0.023128 0.008 0.00486 0.001 0.010505-0.0007 0.015453 0 0.020836 0.003 0.040884 0.003 0.061733 0 0.020836-0.003 0.04198-0.007 0.061737-0.0154 0.031013-0.0123 0.060485-0.0293 0.084889-0.054 0.010288-0.0104 0.022295-0.0184 0.030868-0.0309l1.1654-1.72c0.077102-0.11257 0.050833-0.27017-0.061735-0.34727-0.056285-0.0385-0.12333-0.0502-0.18521-0.0386z" fill-opacity=".94118" fill="#206ad9"/>
  </g>
 </g>
</svg>
