<?xml version="1.0" encoding="UTF-8" standalone="no"?>
<!-- Created with Inkscape (http://www.inkscape.org/) -->

<svg
   xmlns:dc="http://purl.org/dc/elements/1.1/"
   xmlns:cc="http://creativecommons.org/ns#"
   xmlns:rdf="http://www.w3.org/1999/02/22-rdf-syntax-ns#"
   xmlns:svg="http://www.w3.org/2000/svg"
   xmlns="http://www.w3.org/2000/svg"
   xmlns:sodipodi="http://sodipodi.sourceforge.net/DTD/sodipodi-0.dtd"
   xmlns:inkscape="http://www.inkscape.org/namespaces/inkscape"
   height="16"
   width="16"
   version="1.1"
   viewBox="0 0 4.2333332 4.2333335"
   id="svg14"
   sodipodi:docname="checkbox-checked-dark.svg"
   inkscape:version="0.92.2 2405546, 2018-03-11">
  <defs
     id="defs18" />
  <sodipodi:namedview
     pagecolor="#ffffff"
     bordercolor="#666666"
     borderopacity="1"
     objecttolerance="10"
     gridtolerance="10"
     guidetolerance="10"
     inkscape:pageopacity="0"
     inkscape:pageshadow="2"
     inkscape:window-width="772"
     inkscape:window-height="480"
     id="namedview16"
     showgrid="false"
     inkscape:zoom="14.75"
     inkscape:cx="8"
     inkscape:cy="8"
     inkscape:window-x="1549"
     inkscape:window-y="189"
     inkscape:window-maximized="0"
     inkscape:current-layer="svg14" />
  <metadata
     id="metadata2">
    <rdf:RDF>
      <cc:Work
         rdf:about="">
        <dc:format>image/svg+xml</dc:format>
        <dc:type
           rdf:resource="http://purl.org/dc/dcmitype/StillImage" />
        <dc:title></dc:title>
      </cc:Work>
    </rdf:RDF>
  </metadata>
  <rect
     rx=".23151"
     transform="rotate(90)"
     height="3.2411"
     width="3.2411"
     y="-3.7372"
     x=".49001"
     stroke-width=".23151"
     fill="#fff"
     id="rect4" />
  <g
     transform="translate(0,-292.77)"
     id="g12">
    <rect
       rx=".75627"
       ry=".75627"
       height="3.7042"
       width="3.7042"
       y="293.03"
       x=".26458"
       fill="#262934"
       id="rect6" />
    <rect
       rx=".65543"
       ry=".65543"
       height="3.2103"
       width="3.2103"
       y="293.28"
       x=".51153"
       fill="#2d323d"
       id="rect8" />
    <path
       opacity=".2"
       d="m1.1675 293.28c-0.36311 0-0.65595 0.29284-0.65595 0.65594v0.24695c0-0.36311 0.29284-0.65595 0.65595-0.65595h1.8984c0.36311 0 0.65595 0.29284 0.65595 0.65595v-0.24695c0-0.3631-0.29284-0.65594-0.65595-0.65594z"
       fill="#2d323d"
       id="path10" />
  </g>
  <path
     d="M 2.9488176,1.26162 C 2.8869356,1.274642 2.8253131,1.31371 2.7867603,1.37014 L 1.7912629,2.8286487 1.4131358,2.4505216 c -0.096479,-0.096479 -0.2507897,-0.096479 -0.347264,0 -0.0964786,0.096479 -0.0964786,0.2507898 0,0.3472641 l 0.5478958,0.5478957 0.038585,0.038581 c 0.010396,0.010266 0.018336,0.022294 0.030867,0.030872 0.00965,0.00662 0.020696,0.010374 0.03087,0.015432 0.012618,0.00623 0.025303,0.011503 0.038583,0.015453 0.0075,0.00239 0.015557,0.00619 0.023128,0.0077 0.00486,0.00109 0.010512,-6.509e-4 0.015441,0 0.020836,0.00267 0.040884,0.00267 0.061735,0 0.020836,-0.00271 0.04198,-0.00738 0.061737,-0.015453 0.031013,-0.012263 0.060485,-0.029314 0.084887,-0.054021 0.010279,-0.010396 0.022294,-0.018383 0.030867,-0.030865 L 3.1957555,1.6474498 C 3.2728568,1.534882 3.2465884,1.3772784 3.1340206,1.3001858 3.0777356,1.2616352 3.0106941,1.2500301 2.9488139,1.2616005 Z"
     id="path15"
     inkscape:connector-curvature="0"
     style="opacity:0.2;stroke-width:0.21704" />
  <path
     d="M 2.9488176,1.0163648 C 2.8869356,1.0272168 2.8253131,1.066284 2.7867603,1.1227144 L 1.7912629,2.5812232 1.4131358,2.2030961 c -0.096479,-0.096481 -0.2507897,-0.096481 -0.347264,0 -0.0964786,0.096477 -0.0964786,0.2507897 0,0.347264 l 0.5478958,0.5478958 0.038585,0.038583 c 0.010396,0.010266 0.018336,0.022294 0.030867,0.03087 0.00965,0.00662 0.020696,0.010375 0.03087,0.015432 0.012618,0.00623 0.025303,0.011503 0.038583,0.015432 0.0075,0.00239 0.015557,0.00619 0.023128,0.0077 0.00486,0.00109 0.010512,-6.508e-4 0.015441,0 0.020836,0.00267 0.040884,0.00267 0.061735,0 0.020836,-0.00271 0.04198,-0.00738 0.061737,-0.015432 0.031013,-0.012263 0.060485,-0.029316 0.084887,-0.054021 0.010279,-0.010396 0.022294,-0.018362 0.030867,-0.030865 L 3.1957338,1.4005017 C 3.2728351,1.2879339 3.2465667,1.1303303 3.1339989,1.0532377 3.0777139,1.0146893 3.0106724,1.003082 2.9487922,1.0146545 Z"
     id="path17"
     inkscape:connector-curvature="0"
     style="fill:#d3dae3;stroke-width:0.21704;fill-opacity:1" />
</svg>
