<?xml version="1.0" encoding="UTF-8" standalone="no"?>
<!-- Created with Inkscape (http://www.inkscape.org/) -->
<svg xmlns:rdf="http://www.w3.org/1999/02/22-rdf-syntax-ns#" xmlns="http://www.w3.org/2000/svg" height="32" width="32" version="1.1" xmlns:cc="http://creativecommons.org/ns#" xmlns:dc="http://purl.org/dc/elements/1.1/" viewBox="0 0 8.466667 8.4666669">
 <defs>
  <linearGradient id="linearGradient6555-8" y2="5.3464" gradientUnits="userSpaceOnUse" x2="4.9887" gradientTransform="matrix(.23152 0 0 .23152 .26565 .26192)" y1="12.382" x1="10.126">
   <stop stop-color="#75afff" offset="0"/>
   <stop stop-color="#8cbaff" offset="1"/>
  </linearGradient>
  <linearGradient id="linearGradient6557-2" y2="2.4407" gradientUnits="userSpaceOnUse" x2="2.9831" gradientTransform="matrix(.23152 0 0 .23152 .26565 .26192)" y1="13.695" x1="11.932">
   <stop stop-color="#87b7ff" offset="0"/>
   <stop stop-color="#98c1ff" offset="1"/>
  </linearGradient>
 </defs>
 <metadata>
  <rdf:RDF>
   <cc:Work rdf:about="">
    <dc:format>image/svg+xml</dc:format>
    <dc:type rdf:resource="http://purl.org/dc/dcmitype/StillImage"/>
    <dc:title/>
   </cc:Work>
  </rdf:RDF>
 </metadata>
 <g transform="matrix(2 0 0 2 -.00063332 .0052603)">
  <g stroke-width=".23152">
   <path d="m2.117 3.7346c-0.89501 0-1.6206-0.72554-1.6206-1.6206 0-0.89501 0.72554-1.6206 1.6206-1.6206 0.89501 0 1.6206 0.72554 1.6206 1.6206 0 0.89501-0.72556 1.6206-1.6206 1.6206z" fill="#fff"/>
   <path d="m2.117 0.26192c-1.0229 0-1.8521 0.8292-1.8521 1.8521s0.8292 1.8521 1.8521 1.8521 1.8521-0.8292 1.8521-1.8521-0.8292-1.8521-1.8521-1.8521z" fill="url(#linearGradient6555-8)"/>
   <path d="m2.117 0.26192c-1.0229 0-1.8521 0.8292-1.8521 1.8521s0.8292 1.8521 1.8521 1.8521 1.8521-0.8292 1.8521-1.8521-0.8292-1.8521-1.8521-1.8521zm0 0.23152c0.89501 0 1.6206 0.72554 1.6206 1.6206 0 0.89501-0.72556 1.6206-1.6206 1.6206-0.89501 0-1.6206-0.72554-1.6206-1.6206 0-0.89501 0.72554-1.6206 1.6206-1.6206z" fill-opacity=".99216" fill="url(#linearGradient6557-2)"/>
   <path opacity=".2" d="m2.117 0.26192c-1.0229 0-1.8521 0.8292-1.8521 1.8521 0 0.039061 0.003494 0.077294 0.005882 0.11576 0.06004-0.9687 0.8624-1.7364 1.8462-1.7364s1.7862 0.76763 1.8462 1.7363c0.00239-0.038462 0.00588-0.076695 0.00588-0.11576 0-1.0229-0.8292-1.8521-1.8521-1.8521z"/>
  </g>
  <rect opacity=".2" rx=".28024" ry=".24308" height=".48617" width="2.3152" y="2.0438" x=".96018" stroke-width=".21704"/>
  <rect rx=".28024" ry=".24308" height=".48617" width="2.3152" y="1.8702" x=".96018" stroke-width=".21704" fill="#1a1a1a"/>
 </g>
</svg>
