<?xml version="1.0" encoding="UTF-8" standalone="no"?>
<!-- Created with Inkscape (http://www.inkscape.org/) -->
<svg xmlns:rdf="http://www.w3.org/1999/02/22-rdf-syntax-ns#" xmlns="http://www.w3.org/2000/svg" height="32" width="32" version="1.1" xmlns:cc="http://creativecommons.org/ns#" xmlns:dc="http://purl.org/dc/elements/1.1/" viewBox="0 0 8.466667 8.4666669">
 <defs>
  <linearGradient id="linearGradient6555" x1="10.126" gradientUnits="userSpaceOnUse" y1="12.382" gradientTransform="matrix(1.0667,0,0,1.0667,154.67,-389)" x2="4.9887" y2="5.3464">
   <stop stop-color="#75afff" offset="0"/>
   <stop stop-color="#8cbaff" offset="1"/>
  </linearGradient>
  <linearGradient id="linearGradient6557" x1="11.932" gradientUnits="userSpaceOnUse" y1="13.695" gradientTransform="matrix(1.0667,0,0,1.0667,154.67,-389)" x2="2.9831" y2="2.4407">
   <stop stop-color="#87b7ff" offset="0"/>
   <stop stop-color="#98c1ff" offset="1"/>
  </linearGradient>
 </defs>
 <metadata>
  <rdf:RDF>
   <cc:Work rdf:about="">
    <dc:format>image/svg+xml</dc:format>
    <dc:type rdf:resource="http://purl.org/dc/dcmitype/StillImage"/>
    <dc:title/>
   </cc:Work>
  </rdf:RDF>
 </metadata>
 <g transform="matrix(2 0 0 2 -.00071125 -585.53)">
  <g id="radio-mixed-insensitive" transform="matrix(.21704 0 0 .21704 -15.715 347.14)">
   <g transform="translate(313.63,342.37)">
    <g transform="translate(-394.67,-202.67)">
     <g stroke-width="1.0667">
      <path fill="#fff" d="m163.2-373c-4.1237 0-7.4667-3.3429-7.4667-7.4667 0-4.1237 3.3429-7.4667 7.4667-7.4667 4.1237 0 7.4667 3.3429 7.4667 7.4667 0 4.1237-3.343 7.4667-7.4667 7.4667z"/>
      <path fill="url(#linearGradient6555)" d="m163.2-389c-4.7128 0-8.5333 3.8205-8.5333 8.5333s3.8205 8.5333 8.5333 8.5333 8.5333-3.8205 8.5333-8.5333-3.8205-8.5333-8.5333-8.5333z"/>
      <path d="m163.2-389c-4.7128 0-8.5333 3.8205-8.5333 8.5333s3.8205 8.5333 8.5333 8.5333 8.5333-3.8205 8.5333-8.5333-3.8205-8.5333-8.5333-8.5333zm0 1.0667c4.1237 0 7.4667 3.3429 7.4667 7.4667 0 4.1237-3.343 7.4667-7.4667 7.4667s-7.4667-3.3429-7.4667-7.4667c0-4.1237 3.3429-7.4667 7.4667-7.4667z" fill-opacity=".99216" fill="url(#linearGradient6557)"/>
     </g>
     <path opacity=".2" d="m163.2-389c-4.7128 0-8.5333 3.8205-8.5333 8.5333 0 0.17997 0.0161 0.35613 0.0271 0.53334 0.27653-4.4632 3.9734-8 8.5062-8s8.2297 3.5368 8.5062 8c0.011-0.17721 0.0271-0.35337 0.0271-0.53334 0-4.7128-3.8205-8.5333-8.5333-8.5333z" stroke-width="1.0667"/>
     <rect opacity=".2" rx="1.2912" ry="1.12" height="2.24" width="10.667" y="-380.79" x="157.87"/>
     <rect rx="1.2912" ry="1.12" height="2.24" width="10.667" y="-381.59" x="157.87" fill="#e9f1fc"/>
    </g>
   </g>
  </g>
 </g>
</svg>
