<?xml version="1.0" encoding="UTF-8" standalone="no"?>
<!-- Created with Inkscape (http://www.inkscape.org/) -->
<svg xmlns:rdf="http://www.w3.org/1999/02/22-rdf-syntax-ns#" xmlns="http://www.w3.org/2000/svg" height="16" width="16" version="1.1" xmlns:cc="http://creativecommons.org/ns#" xmlns:dc="http://purl.org/dc/elements/1.1/" viewBox="0 0 4.2333332 4.2333335">
 <metadata>
  <rdf:RDF>
   <cc:Work rdf:about="">
    <dc:format>image/svg+xml</dc:format>
    <dc:type rdf:resource="http://purl.org/dc/dcmitype/StillImage"/>
    <dc:title/>
   </cc:Work>
  </rdf:RDF>
 </metadata>
 <g transform="translate(0 -292.77)">
  <g id="radio-mixed" transform="matrix(.21704 0 0 .21670 -15.71 351.66)">
   <rect rx="0" ry="0" height="17.067" width="17.067" y="-270.55" x="73.6" fill="none"/>
   <path stroke-width="1.0667" fill="#fff" d="m82.133-254.52c-4.1237 0-7.4667-3.3429-7.4667-7.4667 0-4.1237 3.3429-7.4667 7.4667-7.4667 4.1237 0 7.4667 3.3429 7.4667 7.4667 0 4.1237-3.3429 7.4667-7.4667 7.4667z"/>
   <g>
    <g stroke-width="1.0667">
     <path d="m82.133-270.52c-4.7128 0-8.5333 3.8205-8.5333 8.5333s3.8205 8.5333 8.5333 8.5333 8.5333-3.8205 8.5333-8.5333-3.8205-8.5333-8.5333-8.5333z" fill="#206ad9"/>
     <path opacity=".05" d="m82.133-270.52c-4.7128 0-8.5333 3.8205-8.5333 8.5333s3.8205 8.5333 8.5333 8.5333 8.5333-3.8205 8.5333-8.5333-3.8205-8.5333-8.5333-8.5333zm0 1.0667c4.1237 0 7.4667 3.3429 7.4667 7.4667 0 4.1237-3.3429 7.4667-7.4667 7.4667-4.1237 0-7.4667-3.3429-7.4667-7.4667 0-4.1237 3.3429-7.4667 7.4667-7.4667z" fill="#206ad9"/>
     <path opacity=".1" d="m82.133-270.52c-4.7128 0-8.5333 3.8205-8.5333 8.5333 0 0.17997 0.01611 0.35613 0.02708 0.53334 0.27654-4.4632 3.9734-8 8.5062-8 4.5329 0 8.2297 3.5368 8.5062 8 0.01098-0.17721 0.02708-0.35337 0.02708-0.53334 0-4.7128-3.8205-8.5333-8.5333-8.5333z"/>
    </g>
    <rect opacity=".2" rx="1.2912" ry="1.12" height="2.24" width="10.667" y="-262.31" x="76.8"/>
    <rect rx="1.2912" ry="1.12" height="2.24" width="10.667" y="-263.11" x="76.8" fill="#fff"/>
   </g>
  </g>
 </g>
</svg>
