<?xml version="1.0" encoding="UTF-8" standalone="no"?>
<!-- Created with Inkscape (http://www.inkscape.org/) -->
<svg xmlns:rdf="http://www.w3.org/1999/02/22-rdf-syntax-ns#" xmlns="http://www.w3.org/2000/svg" height="16" width="16" version="1.1" xmlns:cc="http://creativecommons.org/ns#" xmlns:xlink="http://www.w3.org/1999/xlink" viewBox="0 0 4.2333332 4.2333335" xmlns:dc="http://purl.org/dc/elements/1.1/">
 <defs>
  <linearGradient id="linearGradient4199-9-9" y2="5.3464" gradientUnits="userSpaceOnUse" x2="4.9887" gradientTransform="matrix(1.0667 0 0 1.0667 -154.67 -482.81)" y1="12.382" x1="10.126">
   <stop stop-color="#75afff" offset="0"/>
   <stop stop-color="#8cbaff" offset="1"/>
  </linearGradient>
  <linearGradient id="linearGradient4201-94-4" y2="2.4407" gradientUnits="userSpaceOnUse" x2="2.9831" gradientTransform="matrix(1.0667 0 0 1.0667 -154.67 -482.81)" y1="13.695" x1="11.932">
   <stop stop-color="#87b7ff" offset="0"/>
   <stop stop-color="#98c1ff" offset="1"/>
  </linearGradient>
 </defs>
 <metadata>
  <rdf:RDF>
   <cc:Work rdf:about="">
    <dc:format>image/svg+xml</dc:format>
    <dc:type rdf:resource="http://purl.org/dc/dcmitype/StillImage"/>
    <dc:title/>
   </cc:Work>
  </rdf:RDF>
 </metadata>
 <g transform="translate(0 -292.77)">
  <g id="radio-checked-insensitive" transform="matrix(.21704 0 0 .21704 -20.085 347.14)">
   <g transform="translate(248.43 233.52)">
    <g stroke-width="1.0667">
     <path d="m-146.13-466.81c-4.1237 0-7.4667-3.343-7.4667-7.4667s3.3429-7.4667 7.4667-7.4667c4.1237 0 7.4667 3.343 7.4667 7.4667s-3.3429 7.4667-7.4667 7.4667z" fill="#fff"/>
     <path d="m-146.13-482.81c-4.7128 0-8.5333 3.8205-8.5333 8.5333s3.8205 8.5333 8.5333 8.5333 8.5333-3.8205 8.5333-8.5333-3.8205-8.5333-8.5333-8.5333z" fill="url(#linearGradient4199-9-9)"/>
     <path d="m-146.13-482.81c-4.7128 0-8.5333 3.8205-8.5333 8.5333s3.8205 8.5333 8.5333 8.5333 8.5333-3.8205 8.5333-8.5333-3.8205-8.5333-8.5333-8.5333zm0 1.0667c4.1237 0 7.4667 3.343 7.4667 7.4667s-3.3429 7.4667-7.4667 7.4667c-4.1237 0-7.4667-3.343-7.4667-7.4667s3.3429-7.4667 7.4667-7.4667z" fill-opacity=".99216" fill="url(#linearGradient4201-94-4)"/>
    </g>
    <path opacity=".2" d="m-142.93-473.21c0 1.7673-1.4327 3.2-3.2 3.2s-3.2-1.4327-3.2-3.2 1.4327-3.2 3.2-3.2 3.2 1.4327 3.2 3.2z"/>
    <path d="m-142.93-474.28c0 1.7673-1.4327 3.2-3.2 3.2s-3.2-1.4327-3.2-3.2 1.4327-3.2 3.2-3.2 3.2 1.4327 3.2 3.2z" fill="#e9f1fc"/>
    <path opacity=".2" d="m-146.13-482.81c-4.7128 0-8.5333 3.8205-8.5333 8.5333 0 0.17997 0.0161 0.35613 0.0271 0.53333 0.27653-4.4632 3.9734-8 8.5062-8s8.2297 3.5368 8.5062 8c0.011-0.1772 0.0271-0.35336 0.0271-0.53333 0-4.7128-3.8205-8.5333-8.5333-8.5333z" stroke-width="1.0667"/>
   </g>
  </g>
 </g>
</svg>
