<?xml version="1.0" encoding="UTF-8" standalone="no"?>
<!-- Created with Inkscape (http://www.inkscape.org/) -->

<svg
   xmlns:dc="http://purl.org/dc/elements/1.1/"
   xmlns:cc="http://creativecommons.org/ns#"
   xmlns:rdf="http://www.w3.org/1999/02/22-rdf-syntax-ns#"
   xmlns:svg="http://www.w3.org/2000/svg"
   xmlns="http://www.w3.org/2000/svg"
   xmlns:sodipodi="http://sodipodi.sourceforge.net/DTD/sodipodi-0.dtd"
   xmlns:inkscape="http://www.inkscape.org/namespaces/inkscape"
   height="16"
   width="16"
   version="1.1"
   viewBox="0 0 4.2333332 4.2333335"
   id="svg30"
   sodipodi:docname="radio-mixed-insensitive-dark.svg"
   inkscape:version="0.92.1 r15371">
  <sodipodi:namedview
     pagecolor="#ffffff"
     bordercolor="#666666"
     borderopacity="1"
     objecttolerance="10"
     gridtolerance="10"
     guidetolerance="10"
     inkscape:pageopacity="0"
     inkscape:pageshadow="2"
     inkscape:window-width="818"
     inkscape:window-height="480"
     id="namedview32"
     showgrid="false"
     inkscape:zoom="14.75"
     inkscape:cx="8"
     inkscape:cy="8"
     inkscape:window-x="0"
     inkscape:window-y="28"
     inkscape:window-maximized="0"
     inkscape:current-layer="svg30" />
  <defs
     id="defs12">
    <linearGradient
       id="linearGradient6555"
       x1="10.126"
       gradientUnits="userSpaceOnUse"
       y1="12.382"
       gradientTransform="matrix(.23152 0 0 .23152 .26565 .26192)"
       x2="4.9887"
       y2="5.3464">
      <stop
         stop-color="#75afff"
         offset="0"
         id="stop2" />
      <stop
         stop-color="#8cbaff"
         offset="1"
         id="stop4" />
    </linearGradient>
    <linearGradient
       id="linearGradient6557"
       x1="11.932"
       gradientUnits="userSpaceOnUse"
       y1="13.695"
       gradientTransform="matrix(.23152 0 0 .23152 .26565 .26192)"
       x2="2.9831"
       y2="2.4407">
      <stop
         stop-color="#87b7ff"
         offset="0"
         id="stop7" />
      <stop
         stop-color="#98c1ff"
         offset="1"
         id="stop9" />
    </linearGradient>
  </defs>
  <metadata
     id="metadata14">
    <rdf:RDF>
      <cc:Work
         rdf:about="">
        <dc:format>image/svg+xml</dc:format>
        <dc:type
           rdf:resource="http://purl.org/dc/dcmitype/StillImage" />
        <dc:title />
      </cc:Work>
    </rdf:RDF>
  </metadata>
  <g
     id="g4536">
    <g
       id="g24"
       stroke-width=".23152">
      <path
         id="path16"
         d="m2.117 3.7346c-0.89501 0-1.6206-0.72554-1.6206-1.6206 0-0.89501 0.72554-1.6206 1.6206-1.6206 0.89501 0 1.6206 0.72554 1.6206 1.6206 0 0.89501-0.72556 1.6206-1.6206 1.6206z"
         fill="#fff" />
      <path
         id="path18"
         d="m2.117 0.26192c-1.0229 0-1.8521 0.8292-1.8521 1.8521s0.8292 1.8521 1.8521 1.8521 1.8521-0.8292 1.8521-1.8521-0.8292-1.8521-1.8521-1.8521z"
         fill="url(#linearGradient6555)" />
      <path
         id="path20"
         fill="url(#linearGradient6557)"
         fill-opacity=".99216"
         d="m2.117 0.26192c-1.0229 0-1.8521 0.8292-1.8521 1.8521s0.8292 1.8521 1.8521 1.8521 1.8521-0.8292 1.8521-1.8521-0.8292-1.8521-1.8521-1.8521zm0 0.23152c0.89501 0 1.6206 0.72554 1.6206 1.6206 0 0.89501-0.72556 1.6206-1.6206 1.6206-0.89501 0-1.6206-0.72554-1.6206-1.6206 0-0.89501 0.72554-1.6206 1.6206-1.6206z" />
      <path
         id="path22"
         d="m2.117 0.26192c-1.0229 0-1.8521 0.8292-1.8521 1.8521 0 0.039061 0.003494 0.077294 0.005882 0.11576 0.06004-0.9687 0.8624-1.7364 1.8462-1.7364s1.7862 0.76763 1.8462 1.7363c0.00239-0.038462 0.00588-0.076695 0.00588-0.11576 0-1.0229-0.8292-1.8521-1.8521-1.8521z"
         opacity=".2" />
    </g>
    <rect
       id="rect26"
       stroke-width=".21704"
       x=".96018"
       y="2.0438"
       width="2.3152"
       height=".48617"
       ry=".24308"
       rx=".28024"
       opacity=".2" />
    <rect
       id="rect28"
       fill="#1a1a1a"
       stroke-width=".21704"
       x=".96018"
       y="1.8702"
       width="2.3152"
       height=".48617"
       ry=".24308"
       rx=".28024" />
  </g>
</svg>
