<?xml version="1.0" encoding="UTF-8" standalone="no"?>
<!-- Created with Inkscape (http://www.inkscape.org/) -->
<svg xmlns:rdf="http://www.w3.org/1999/02/22-rdf-syntax-ns#" xmlns="http://www.w3.org/2000/svg" height="16" width="16" version="1.1" xmlns:cc="http://creativecommons.org/ns#" xmlns:dc="http://purl.org/dc/elements/1.1/" viewBox="0 0 4.2333332 4.2333335">
 <metadata>
  <rdf:RDF>
   <cc:Work rdf:about="">
    <dc:format>image/svg+xml</dc:format>
    <dc:type rdf:resource="http://purl.org/dc/dcmitype/StillImage"/>
    <dc:title/>
   </cc:Work>
  </rdf:RDF>
 </metadata>
 <g transform="translate(0 -292.77)">
  <g id="radio-checked" transform="matrix(.21674 0 0 .21653 -20.058 351.64)">
   <rect height="17.067" width="17.067" y="-270.65" x="93.787" fill="none"/>
   <path d="m102.3-270.69c-4.7128 0-8.5333 3.8205-8.5333 8.5333s3.8205 8.5333 8.5333 8.5333 8.5333-3.8205 8.5333-8.5333-3.8205-8.5333-8.5333-8.5333z" stroke-width="1.0667" fill="#206ad9"/>
   <path opacity=".1" d="m105.5-261.09c0 1.7673-1.4327 3.2-3.2 3.2s-3.2-1.4327-3.2-3.2 1.4327-3.2 3.2-3.2 3.2 1.4327 3.2 3.2z"/>
   <path d="m105.5-262.16c0 1.7673-1.4327 3.2-3.2 3.2s-3.2-1.4327-3.2-3.2 1.4327-3.2 3.2-3.2 3.2 1.4327 3.2 3.2z" fill="#fff"/>
   <path opacity=".1" d="m102.3-270.69c-4.7128 0-8.5333 3.8205-8.5333 8.5333 0 0.17996 0.0161 0.35613 0.02706 0.53333 0.27653-4.4632 3.9734-8 8.5062-8 4.5329 0 8.2297 3.5368 8.5062 8 0.011-0.1772 0.0271-0.35337 0.0271-0.53333 0-4.7128-3.8205-8.5333-8.5333-8.5333z" stroke-width="1.0667"/>
  </g>
 </g>
</svg>
