<?xml version="1.0" encoding="UTF-8" standalone="no"?>
<!-- Created with Inkscape (http://www.inkscape.org/) -->

<svg
   xmlns:dc="http://purl.org/dc/elements/1.1/"
   xmlns:cc="http://creativecommons.org/ns#"
   xmlns:rdf="http://www.w3.org/1999/02/22-rdf-syntax-ns#"
   xmlns:svg="http://www.w3.org/2000/svg"
   xmlns="http://www.w3.org/2000/svg"
   xmlns:sodipodi="http://sodipodi.sourceforge.net/DTD/sodipodi-0.dtd"
   xmlns:inkscape="http://www.inkscape.org/namespaces/inkscape"
   height="16"
   width="16"
   version="1.1"
   viewBox="0 0 4.2333332 4.2333335"
   id="svg12"
   sodipodi:docname="radio-checked-dark.svg"
   inkscape:version="0.92.2 2405546, 2018-03-11">
  <defs
     id="defs16" />
  <sodipodi:namedview
     pagecolor="#ffffff"
     bordercolor="#666666"
     borderopacity="1"
     objecttolerance="10"
     gridtolerance="10"
     guidetolerance="10"
     inkscape:pageopacity="0"
     inkscape:pageshadow="2"
     inkscape:window-width="772"
     inkscape:window-height="480"
     id="namedview14"
     showgrid="false"
     inkscape:zoom="14.75"
     inkscape:cx="-3.5932203"
     inkscape:cy="8"
     inkscape:window-x="2262"
     inkscape:window-y="477"
     inkscape:window-maximized="0"
     inkscape:current-layer="svg12" />
  <metadata
     id="metadata2">
    <rdf:RDF>
      <cc:Work
         rdf:about="">
        <dc:format>image/svg+xml</dc:format>
        <dc:type
           rdf:resource="http://purl.org/dc/dcmitype/StillImage" />
        <dc:title></dc:title>
      </cc:Work>
    </rdf:RDF>
  </metadata>
  <g
     transform="matrix(.23221 0 0 .23209 -51.271 -64.855)"
     id="g10">
    <rect
       style="color:#000000"
       height="18.24"
       width="18.23"
       y="279.44"
       x="220.79"
       fill="none"
       id="rect4" />
    <g
       transform="matrix(.50892 0 0 .51740 193.91 210.74)"
       id="g8">
      <rect
         stroke-linejoin="round"
         height="28.625"
         stroke="#262934"
         stroke-width="2.221"
         fill="#2d323d"
         style="color:#000000"
         rx="14.106"
         ry="14.129"
         width="29.124"
         y="136.11"
         x="56.171"
         id="rect6" />
    </g>
  </g>
  <path
     d="m 2.80807,2.3361823 c 0,0.3826735 -0.3105234,0.692896 -0.693568,0.692896 -0.3830446,0 -0.693568,-0.3102225 -0.693568,-0.692896 0,-0.3826735 0.3105234,-0.692896 0.693568,-0.692896 0.3830446,0 0.693568,0.3102225 0.693568,0.692896 z"
     id="path8"
     inkscape:connector-curvature="0"
     style="opacity:0.1;stroke-width:0.21663497" />
  <path
     d="m 2.80807,2.1044952 c 0,0.3826735 -0.3105234,0.692896 -0.693568,0.692896 -0.3830446,0 -0.693568,-0.3102225 -0.693568,-0.692896 0,-0.3826735 0.3105234,-0.692896 0.693568,-0.692896 0.3830446,0 0.693568,0.3102225 0.693568,0.692896 z"
     id="path10"
     inkscape:connector-curvature="0"
     style="fill:#d3dae3;stroke-width:0.21663497;fill-opacity:1" />
</svg>
